<svg xmlns="http://www.w3.org/2000/svg" xmlns:xlink="http://www.w3.org/1999/xlink" width="73px" height="50px" viewBox="0 0 72 50"><g id="surface1"><path style=" stroke:none;fill-rule:nonzero;fill:rgb(31.372549%,32.156863%,34.117647%);fill-opacity:1;" d="M 3 50 C 2.101562 50.058594 1.222656 49.71875 0.597656 49.0625 L 1.109375 48.546875 C 1.597656 49.082031 2.300781 49.367188 3.019531 49.324219 C 4.042969 49.324219 4.671875 48.835938 4.671875 48.011719 C 4.691406 47.679688 4.570312 47.359375 4.335938 47.125 C 4.078125 46.914062 3.753906 46.796875 3.421875 46.789062 L 2.605469 46.660156 C 2.132812 46.605469 1.6875 46.417969 1.3125 46.125 C 0.949219 45.785156 0.753906 45.300781 0.78125 44.800781 C 0.78125 43.597656 1.640625 42.804688 3.027344 42.804688 C 3.800781 42.761719 4.554688 43.042969 5.113281 43.578125 L 4.632812 44.066406 C 4.191406 43.644531 3.601562 43.425781 2.996094 43.460938 C 2.0625 43.460938 1.519531 43.988281 1.519531 44.769531 C 1.5 45.078125 1.617188 45.375 1.835938 45.585938 C 2.113281 45.792969 2.4375 45.929688 2.78125 45.972656 L 3.550781 46.09375 C 4.015625 46.121094 4.464844 46.292969 4.828125 46.589844 C 5.226562 46.945312 5.441406 47.457031 5.421875 47.992188 C 5.421875 49.234375 4.457031 50 3 50 "></path><path style=" stroke:none;fill-rule:nonzero;fill:rgb(31.372549%,32.156863%,34.117647%);fill-opacity:1;" d="M 11.699219 42.863281 L 11.699219 49.941406 L 16.050781 49.941406 L 16.050781 49.265625 L 12.449219 49.265625 L 12.449219 46.710938 L 15.523438 46.710938 L 15.523438 46.035156 L 12.449219 46.035156 L 12.449219 43.539062 L 16.050781 43.539062 L 16.050781 42.863281 Z M 11.699219 42.863281 "></path><path style=" stroke:none;fill-rule:nonzero;fill:rgb(31.372549%,32.156863%,34.117647%);fill-opacity:1;" d="M 26.261719 49.183594 C 25.789062 49.691406 25.136719 49.984375 24.445312 50 C 23.757812 50.015625 23.09375 49.75 22.601562 49.265625 C 21.941406 48.597656 21.941406 47.902344 21.941406 46.402344 C 21.941406 44.902344 21.941406 44.207031 22.601562 43.539062 C 23.074219 43.058594 23.71875 42.796875 24.390625 42.804688 C 25.628906 42.761719 26.691406 43.679688 26.84375 44.921875 L 26.09375 44.921875 C 25.984375 44.28125 25.53125 43.757812 24.917969 43.5625 C 24.304688 43.367188 23.636719 43.53125 23.179688 43.988281 C 22.738281 44.445312 22.6875 44.921875 22.6875 46.402344 C 22.6875 47.882812 22.738281 48.371094 23.179688 48.828125 C 23.5 49.148438 23.9375 49.328125 24.390625 49.324219 C 24.902344 49.332031 25.390625 49.109375 25.722656 48.71875 C 26.007812 48.355469 26.148438 47.898438 26.117188 47.4375 L 26.117188 46.898438 L 24.394531 46.898438 L 24.394531 46.234375 L 26.863281 46.234375 L 26.863281 47.355469 C 26.921875 48.023438 26.703125 48.683594 26.265625 49.183594 "></path><path style=" stroke:none;fill-rule:nonzero;fill:rgb(31.372549%,32.156863%,34.117647%);fill-opacity:1;" d="M 35.625 50 C 34.980469 50.035156 34.347656 49.796875 33.886719 49.34375 C 33.421875 48.886719 33.167969 48.257812 33.183594 47.605469 L 33.183594 42.863281 L 33.933594 42.863281 L 33.933594 47.546875 C 33.910156 48.171875 34.230469 48.761719 34.765625 49.082031 C 35.300781 49.402344 35.964844 49.402344 36.5 49.082031 C 37.035156 48.761719 37.351562 48.171875 37.328125 47.546875 L 37.328125 42.863281 L 38.078125 42.863281 L 38.078125 47.605469 C 38.09375 48.257812 37.835938 48.890625 37.371094 49.34375 C 36.90625 49.796875 36.273438 50.035156 35.625 50 "></path><path style=" stroke:none;fill-rule:nonzero;fill:rgb(31.372549%,32.156863%,34.117647%);fill-opacity:1;" d="M 47.285156 43.539062 L 45.417969 43.539062 L 45.417969 46.132812 L 47.285156 46.132812 C 48.105469 46.132812 48.683594 45.707031 48.683594 44.839844 C 48.683594 43.976562 48.105469 43.539062 47.285156 43.539062 M 48.695312 49.9375 L 47.101562 46.796875 L 45.417969 46.796875 L 45.417969 49.9375 L 44.667969 49.9375 L 44.667969 42.863281 L 47.355469 42.863281 C 48.578125 42.863281 49.433594 43.609375 49.433594 44.832031 C 49.476562 45.765625 48.820312 46.582031 47.90625 46.730469 L 49.570312 49.941406 Z M 48.695312 49.9375 "></path><path style=" stroke:none;fill-rule:nonzero;fill:rgb(31.372549%,32.156863%,34.117647%);fill-opacity:1;" d="M 59.296875 43.988281 C 58.976562 43.664062 58.542969 43.480469 58.085938 43.480469 C 57.632812 43.480469 57.199219 43.664062 56.875 43.988281 C 56.433594 44.445312 56.382812 44.921875 56.382812 46.402344 C 56.382812 47.882812 56.433594 48.359375 56.875 48.816406 C 57.546875 49.492188 58.628906 49.492188 59.296875 48.816406 C 59.742188 48.359375 59.789062 47.882812 59.789062 46.402344 C 59.789062 44.921875 59.742188 44.445312 59.296875 43.988281 M 59.878906 49.265625 C 58.882812 50.246094 57.292969 50.246094 56.296875 49.265625 C 55.636719 48.601562 55.636719 47.902344 55.636719 46.402344 C 55.636719 44.902344 55.636719 44.207031 56.296875 43.542969 C 57.292969 42.5625 58.882812 42.5625 59.878906 43.542969 C 60.539062 44.207031 60.539062 44.902344 60.539062 46.402344 C 60.539062 47.90625 60.539062 48.601562 59.878906 49.265625 "></path><path style=" stroke:none;fill-rule:nonzero;fill:rgb(31.372549%,32.156863%,34.117647%);fill-opacity:1;" d="M 68.921875 50 C 68.023438 50.058594 67.144531 49.71875 66.519531 49.0625 L 67.03125 48.546875 C 67.519531 49.082031 68.222656 49.367188 68.941406 49.324219 C 69.964844 49.324219 70.59375 48.835938 70.59375 48.011719 C 70.617188 47.679688 70.492188 47.359375 70.261719 47.125 C 70 46.914062 69.675781 46.796875 69.34375 46.789062 L 68.527344 46.660156 C 68.054688 46.605469 67.609375 46.417969 67.238281 46.125 C 66.871094 45.785156 66.679688 45.300781 66.703125 44.800781 C 66.703125 43.597656 67.5625 42.804688 68.949219 42.804688 C 69.722656 42.761719 70.476562 43.042969 71.035156 43.578125 L 70.554688 44.066406 C 70.113281 43.644531 69.523438 43.425781 68.921875 43.460938 C 67.984375 43.460938 67.445312 43.988281 67.445312 44.769531 C 67.421875 45.078125 67.539062 45.375 67.757812 45.585938 C 68.035156 45.792969 68.359375 45.929688 68.703125 45.972656 L 69.472656 46.09375 C 69.9375 46.121094 70.386719 46.292969 70.75 46.589844 C 71.148438 46.945312 71.363281 47.457031 71.34375 47.992188 C 71.34375 49.234375 70.378906 50 68.921875 50 "></path><path style=" stroke:none;fill-rule:nonzero;fill:rgb(0%,9.019608%,21.176471%);fill-opacity:1;" d="M 42.8125 28.511719 L 46.066406 28.511719 C 46.625 28.507812 47.082031 28.050781 47.082031 27.484375 L 47.082031 0.40625 L 44.171875 0.40625 C 43.601562 0.40625 43.140625 0.875 43.140625 1.449219 L 43.140625 22.808594 L 30.410156 0.96875 C 30.207031 0.621094 29.835938 0.410156 29.4375 0.40625 L 26.761719 0.40625 C 26.199219 0.40625 25.742188 0.871094 25.742188 1.4375 L 25.742188 28.511719 L 29.679688 28.511719 L 29.679688 7 L 41.914062 27.992188 C 42.101562 28.3125 42.441406 28.507812 42.808594 28.511719 "></path><path style=" stroke:none;fill-rule:nonzero;fill:rgb(0%,9.019608%,21.176471%);fill-opacity:1;" d="M 55.589844 27.203125 C 57.398438 28.328125 59.484375 28.925781 61.609375 28.917969 C 62.867188 28.917969 64.117188 28.757812 65.332031 28.441406 C 66.488281 28.148438 67.589844 27.664062 68.589844 27.003906 C 69.527344 26.382812 70.324219 25.566406 70.921875 24.609375 C 71.542969 23.585938 71.878906 22.410156 71.894531 21.210938 L 71.894531 21.1875 C 71.921875 20.929688 71.933594 20.679688 71.933594 20.453125 C 71.964844 19.328125 71.730469 18.214844 71.25 17.203125 C 70.710938 16.171875 69.941406 15.28125 69.003906 14.601562 C 68.007812 13.902344 66.90625 13.371094 65.742188 13.027344 C 64.488281 12.652344 63.238281 12.339844 62.023438 12.101562 C 61.25 11.960938 60.496094 11.800781 59.785156 11.628906 C 59.09375 11.464844 58.421875 11.230469 57.777344 10.929688 C 57.207031 10.671875 56.703125 10.289062 56.296875 9.8125 C 55.902344 9.332031 55.695312 8.726562 55.707031 8.105469 C 55.703125 7.457031 55.894531 6.820312 56.257812 6.285156 C 56.621094 5.753906 57.097656 5.3125 57.648438 4.988281 C 58.234375 4.648438 58.867188 4.394531 59.523438 4.234375 C 60.21875 4.066406 60.933594 3.980469 61.652344 3.980469 C 62.921875 3.960938 64.179688 4.210938 65.351562 4.707031 C 66.195312 5.089844 66.910156 5.707031 67.414062 6.488281 C 67.710938 6.9375 68.285156 7.105469 68.769531 6.886719 L 71.457031 5.675781 C 71.050781 4.777344 70.507812 3.953125 69.839844 3.230469 C 69.152344 2.492188 68.359375 1.863281 67.484375 1.363281 C 66.621094 0.875 65.691406 0.527344 64.726562 0.324219 C 63.714844 0.109375 62.683594 0.00390625 61.652344 0.00390625 C 60.445312 0.00390625 59.242188 0.175781 58.082031 0.519531 C 56.972656 0.84375 55.925781 1.355469 54.984375 2.035156 C 54.082031 2.6875 53.316406 3.523438 52.746094 4.488281 C 52.164062 5.492188 51.828125 6.625 51.769531 7.789062 C 51.730469 8.984375 52.011719 10.167969 52.585938 11.210938 C 53.125 12.128906 53.851562 12.917969 54.71875 13.523438 C 55.636719 14.15625 56.644531 14.644531 57.707031 14.980469 C 58.84375 15.34375 59.996094 15.644531 61.160156 15.886719 C 62.042969 16.046875 62.902344 16.234375 63.703125 16.441406 C 64.460938 16.628906 65.191406 16.90625 65.886719 17.269531 C 66.511719 17.597656 67.046875 18.070312 67.449219 18.652344 L 67.457031 18.664062 C 67.78125 19.234375 67.941406 19.882812 67.917969 20.535156 L 67.917969 20.894531 C 67.867188 21.554688 67.640625 22.1875 67.265625 22.730469 C 66.886719 23.257812 66.394531 23.691406 65.828125 24 C 65.21875 24.332031 64.566406 24.570312 63.890625 24.714844 C 63.167969 24.867188 62.433594 24.945312 61.695312 24.945312 C 60.289062 24.945312 58.914062 24.5625 57.710938 23.832031 C 56.800781 23.289062 56.027344 22.539062 55.453125 21.640625 C 55.179688 21.207031 54.628906 21.042969 54.164062 21.257812 L 51.410156 22.515625 C 51.855469 23.449219 52.429688 24.316406 53.109375 25.09375 C 53.828125 25.917969 54.664062 26.625 55.589844 27.203125 "></path><path style=" stroke:none;fill-rule:nonzero;fill:rgb(0%,9.019608%,21.176471%);fill-opacity:1;" d="M 1.324219 24.136719 C 1.964844 25.15625 2.773438 26.054688 3.71875 26.792969 C 4.632812 27.496094 5.660156 28.035156 6.757812 28.382812 C 7.847656 28.734375 8.988281 28.914062 10.136719 28.917969 C 11.417969 28.914062 12.695312 28.730469 13.925781 28.359375 C 15.117188 28.015625 16.230469 27.449219 17.214844 26.695312 C 18.175781 25.945312 18.964844 24.996094 19.539062 23.917969 C 20.144531 22.734375 20.449219 21.414062 20.421875 20.082031 L 20.421875 0.40625 L 17.558594 0.40625 C 16.964844 0.40625 16.488281 0.890625 16.484375 1.488281 L 16.484375 20.082031 C 16.5 20.847656 16.308594 21.605469 15.929688 22.269531 C 15.5625 22.886719 15.074219 23.417969 14.492188 23.832031 C 13.886719 24.257812 13.210938 24.574219 12.496094 24.761719 C 11.082031 25.167969 9.582031 25.160156 8.171875 24.738281 C 6.753906 24.292969 5.542969 23.347656 4.757812 22.074219 C 4.546875 21.734375 4.367188 21.371094 4.226562 20.996094 C 4.039062 20.503906 3.535156 20.214844 3.019531 20.296875 L 0.00390625 20.796875 C 0.242188 21.980469 0.691406 23.113281 1.328125 24.136719 "></path><path style=" stroke:none;fill-rule:nonzero;fill:rgb(98.823529%,89.411765%,0%);fill-opacity:1;" d="M 25.371094 32.289062 L 47.453125 32.289062 L 47.453125 35.328125 L 25.371094 35.328125 Z M 25.371094 32.289062 "></path></g></svg>